<mxfile host="app.diagrams.net" modified="2022-04-27T19:47:54.554Z" agent="5.0 (Windows)" etag="jAqHMg2NSz8yIHhbY6AA" version="17.4.0" type="github">
  <diagram id="5TBrRAbkIkiDny05DDcc" name="Page-1">
    <mxGraphModel dx="1422" dy="752" grid="1" gridSize="10" guides="1" tooltips="1" connect="1" arrows="1" fold="1" page="1" pageScale="1" pageWidth="827" pageHeight="1169" math="0" shadow="0">
      <root>
        <mxCell id="0" />
        <mxCell id="1" parent="0" />
        <mxCell id="jqu8thyBJzWe77G2whhS-1" value="&lt;div&gt;Test&lt;/div&gt;" style="rounded=0;whiteSpace=wrap;html=1;" vertex="1" parent="1">
          <mxGeometry x="350" y="350" width="120" height="60" as="geometry" />
        </mxCell>
      </root>
    </mxGraphModel>
  </diagram>
</mxfile>
